{"asset":{"version":"2.0","generator":"Blockbench 4.10.3 glTF exporter"},"scenes":[{"nodes":[5],"name":"blockbench_export"}],"scene":0,"nodes":[{"name":"body","mesh":0},{"translation":[0,0.25,0],"name":"body","children":[0]},{"translation":[0.00625,0.3999999999999999,0],"name":"stem","mesh":1},{"rotation":[-0.21798252532415865,0.07082681591240736,-0.3007907328363636,0.9257386865853539],"translation":[-0.05312499999999999,0.4781249999999999,0],"name":"leaf","mesh":2},{"name":"stem","children":[2,3]},{"children":[1,4]}],"bufferViews":[{"buffer":0,"byteOffset":0,"byteLength":2904,"target":34962,"byteStride":12},{"buffer":0,"byteOffset":2904,"byteLength":2904,"target":34962,"byteStride":12},{"buffer":0,"byteOffset":5808,"byteLength":1936,"target":34962,"byteStride":8},{"buffer":0,"byteOffset":7744,"byteLength":660,"target":34963},{"buffer":0,"byteOffset":8404,"byteLength":1176,"target":34962,"byteStride":12},{"buffer":0,"byteOffset":9580,"byteLength":1176,"target":34962,"byteStride":12},{"buffer":0,"byteOffset":10756,"byteLength":784,"target":34962,"byteStride":8},{"buffer":0,"byteOffset":11540,"byteLength":252,"target":34963},{"buffer":0,"byteOffset":11792,"byteLength":432,"target":34962,"byteStride":12},{"buffer":0,"byteOffset":12224,"byteLength":432,"target":34962,"byteStride":12},{"buffer":0,"byteOffset":12656,"byteLength":288,"target":34962,"byteStride":8},{"buffer":0,"byteOffset":12944,"byteLength":72,"target":34963}],"buffers":[{"byteLength":13016,"uri":"data:application/octet-stream;base64,"}],"accessors":[{"bufferView":0,"componentType":5126,"count":242,"max":[0.2256644368171692,0.18944305181503296,0.21875],"min":[-0.2256644368171692,-0.21875,-0.22798499464988708],"type":"VEC3"},{"bufferView":1,"componentType":5126,"count":242,"max":[0.9560940861701965,0.9998422265052795,0.9659258127212524],"min":[-0.9560940861701965,-0.9659258127212524,-0.9267990589141846],"type":"VEC3"},{"bufferView":2,"componentType":5126,"count":242,"max":[0.59375,0.75],"min":[0,0.013229191303253174],"type":"VEC2"},{"bufferView":3,"componentType":5123,"count":330,"max":[241],"min":[0],"type":"SCALAR"},{"bufferView":4,"componentType":5126,"count":98,"max":[0.010144578292965889,0.09602776914834976,0.00937500037252903],"min":[-0.01869102194905281,0.03125,-0.01040546502918005],"type":"VEC3"},{"bufferView":5,"componentType":5126,"count":98,"max":[0.9724968671798706,0.9659258127212524,1],"min":[-0.9730193018913269,-1,-0.9009688496589661],"type":"VEC3"},{"bufferView":6,"componentType":5126,"count":98,"max":[0.65625,0.6578134298324585],"min":[0.125,0],"type":"VEC2"},{"bufferView":7,"componentType":5123,"count":126,"max":[97],"min":[0],"type":"SCALAR"},{"bufferView":8,"componentType":5126,"count":36,"max":[0.09375,0.016583889722824097,0.023427050560712814],"min":[-0.09367772191762924,-0.02120397239923477,-0.028008485212922096],"type":"VEC3"},{"bufferView":9,"componentType":5126,"count":36,"max":[0.41731417179107666,0.995904266834259,0.8284382224082947],"min":[-0.14305518567562103,0.5515171885490417,-0.5456643104553223],"type":"VEC3"},{"bufferView":10,"componentType":5126,"count":36,"max":[0.5763104557991028,0.5746207237243652],"min":[0.13348281383514404,0],"type":"VEC2"},{"bufferView":11,"componentType":5123,"count":36,"max":[35],"min":[0],"type":"SCALAR"}],"materials":[{"pbrMetallicRoughness":{"metallicFactor":0,"roughnessFactor":1,"baseColorTexture":{"index":0}},"alphaMode":"MASK","alphaCutoff":0.05,"doubleSided":true}],"textures":[{"sampler":0,"source":0,"name":"texture.png"}],"samplers":[{"magFilter":9728,"minFilter":9728,"wrapS":33071,"wrapT":33071}],"images":[{"mimeType":"image/png","uri":"data:image/png;base64,"}],"meshes":[{"primitives":[{"mode":4,"attributes":{"POSITION":0,"NORMAL":1,"TEXCOORD_0":2},"indices":3,"material":0}]},{"primitives":[{"mode":4,"attributes":{"POSITION":4,"NORMAL":5,"TEXCOORD_0":6},"indices":7,"material":0}]},{"primitives":[{"mode":4,"attributes":{"POSITION":8,"NORMAL":9,"TEXCOORD_0":10},"indices":11,"material":0}]}]}