{"asset":{"version":"2.0","generator":"Blockbench 4.10.3 glTF exporter"},"scenes":[{"nodes":[3],"name":"blockbench_export"}],"scene":0,"nodes":[{"rotation":[0,-0.12186934340514746,0,0.992546151641322],"translation":[0,0.4875000000000009,0],"name":"glass","mesh":0},{"rotation":[0,0.625923472184059,0,0.7798844830928818],"name":"body","mesh":1},{"translation":[0,-0.0625,0],"name":"body","children":[0,1]},{"children":[2]}],"bufferViews":[{"buffer":0,"byteOffset":0,"byteLength":1584,"target":34962,"byteStride":12},{"buffer":0,"byteOffset":1584,"byteLength":1584,"target":34962,"byteStride":12},{"buffer":0,"byteOffset":3168,"byteLength":1056,"target":34962,"byteStride":8},{"buffer":0,"byteOffset":4224,"byteLength":360,"target":34963},{"buffer":0,"byteOffset":4584,"byteLength":2016,"target":34962,"byteStride":12},{"buffer":0,"byteOffset":6600,"byteLength":2016,"target":34962,"byteStride":12},{"buffer":0,"byteOffset":8616,"byteLength":1344,"target":34962,"byteStride":8},{"buffer":0,"byteOffset":9960,"byteLength":432,"target":34963}],"buffers":[{"byteLength":10392,"uri":"data:application/octet-stream;base64,"}],"accessors":[{"bufferView":0,"componentType":5126,"count":132,"max":[0.26875001192092896,0.16249999403953552,0.26249998807907104],"min":[-0.26875001192092896,-0.03750000149011612,-0.26249998807907104],"type":"VEC3"},{"bufferView":1,"componentType":5126,"count":132,"max":[0.9408704042434692,0.9806929230690002,0.9433621764183044],"min":[-0.9408704042434692,0.33176472783088684,-0.9433621764183044],"type":"VEC3"},{"bufferView":2,"componentType":5126,"count":132,"max":[0.5266047120094299,0.3732917308807373],"min":[0.0015411307103931904,0],"type":"VEC2"},{"bufferView":3,"componentType":5123,"count":180,"max":[131],"min":[0],"type":"SCALAR"},{"bufferView":4,"componentType":5126,"count":168,"max":[0.5,0.48750001192092896,0.5],"min":[-0.5,0.29374998807907104,-0.5],"type":"VEC3"},{"bufferView":5,"componentType":5126,"count":168,"max":[1,0.9999049305915833,1],"min":[-1,-1,-1],"type":"VEC3"},{"bufferView":6,"componentType":5126,"count":168,"max":[0.5301687717437744,0.484375],"min":[0.0010812500258907676,0],"type":"VEC2"},{"bufferView":7,"componentType":5123,"count":216,"max":[167],"min":[0],"type":"SCALAR"}],"materials":[{"pbrMetallicRoughness":{"metallicFactor":0,"roughnessFactor":1,"baseColorTexture":{"index":0}},"alphaMode":"MASK","alphaCutoff":0.05,"doubleSided":true},{"pbrMetallicRoughness":{"metallicFactor":0,"roughnessFactor":1,"baseColorTexture":{"index":1}},"alphaMode":"MASK","alphaCutoff":0.05,"doubleSided":true}],"textures":[{"sampler":0,"source":0,"name":"glass_texture"},{"sampler":1,"source":1,"name":"texture"}],"samplers":[{"magFilter":9728,"minFilter":9728,"wrapS":33071,"wrapT":33071},{"magFilter":9728,"minFilter":9728,"wrapS":33071,"wrapT":33071}],"images":[{"mimeType":"image/png","uri":"data:image/png;base64,"},{"mimeType":"image/png","uri":"data:image/png;base64,"}],"meshes":[{"primitives":[{"mode":4,"attributes":{"POSITION":0,"NORMAL":1,"TEXCOORD_0":2},"indices":3,"material":0}]},{"primitives":[{"mode":4,"attributes":{"POSITION":4,"NORMAL":5,"TEXCOORD_0":6},"indices":7,"material":1}]}]}