{"asset":{"version":"2.0","generator":"Blockbench 4.10.3 glTF exporter"},"scenes":[{"nodes":[12],"name":"blockbench_export"}],"scene":0,"nodes":[{"rotation":[0.7071067811865475,0,0,0.7071067811865476],"translation":[0,0,-0.037500000000000006],"name":"thruster_unit","mesh":0},{"rotation":[0.7071067811865475,0,0,0.7071067811865476],"translation":[0.125,0.125,0],"name":"thruster1","mesh":1},{"rotation":[0.7071067811865475,0,0,0.7071067811865476],"translation":[-0.125,0.125,0],"name":"thruster2","mesh":2},{"rotation":[-0.7071067811865475,0,0,0.7071067811865476],"translation":[0.125,-0.125,0],"name":"thruster3","mesh":3},{"rotation":[-0.7071067811865475,0,0,0.7071067811865476],"translation":[-0.125,-0.125,0],"name":"thruster4","mesh":4},{"translation":[0,0,0.1875],"name":"thrusters","children":[0,1,2,3,4]},{"rotation":[-0.7071067811865475,0,0,0.7071067811865476],"translation":[0,0,0.375],"name":"body","mesh":5},{"translation":[0,0,-0.1875],"name":"body","children":[5,6]},{"rotation":[-0.7071067811865475,0,0,0.7071067811865476],"translation":[-0.0125,0.0125,0.46875],"name":"wing","mesh":6},{"rotation":[-0.7071067811865475,0,0,0.7071067811865476],"translation":[-0.3312499999999998,-0.018750000000000017,0.34999999999999987],"name":"blaster1","mesh":7},{"rotation":[-0.7071067811865475,0,0,0.7071067811865476],"translation":[0.3312499999999998,-0.018750000000000017,0.34999999999999987],"name":"blaster2","mesh":8},{"translation":[0,0,-0.1875],"name":"wing","children":[8,9,10]},{"children":[7,11]}],"bufferViews":[{"buffer":0,"byteOffset":0,"byteLength":720,"target":34962,"byteStride":12},{"buffer":0,"byteOffset":720,"byteLength":720,"target":34962,"byteStride":12},{"buffer":0,"byteOffset":1440,"byteLength":480,"target":34962,"byteStride":8},{"buffer":0,"byteOffset":1920,"byteLength":144,"target":34963},{"buffer":0,"byteOffset":2064,"byteLength":1200,"target":34962,"byteStride":12},{"buffer":0,"byteOffset":3264,"byteLength":1200,"target":34962,"byteStride":12},{"buffer":0,"byteOffset":4464,"byteLength":800,"target":34962,"byteStride":8},{"buffer":0,"byteOffset":5264,"byteLength":240,"target":34963},{"buffer":0,"byteOffset":5504,"byteLength":1200,"target":34962,"byteStride":12},{"buffer":0,"byteOffset":6704,"byteLength":1200,"target":34962,"byteStride":12},{"buffer":0,"byteOffset":7904,"byteLength":800,"target":34962,"byteStride":8},{"buffer":0,"byteOffset":8704,"byteLength":240,"target":34963},{"buffer":0,"byteOffset":8944,"byteLength":1200,"target":34962,"byteStride":12},{"buffer":0,"byteOffset":10144,"byteLength":1200,"target":34962,"byteStride":12},{"buffer":0,"byteOffset":11344,"byteLength":800,"target":34962,"byteStride":8},{"buffer":0,"byteOffset":12144,"byteLength":240,"target":34963},{"buffer":0,"byteOffset":12384,"byteLength":1200,"target":34962,"byteStride":12},{"buffer":0,"byteOffset":13584,"byteLength":1200,"target":34962,"byteStride":12},{"buffer":0,"byteOffset":14784,"byteLength":800,"target":34962,"byteStride":8},{"buffer":0,"byteOffset":15584,"byteLength":240,"target":34963},{"buffer":0,"byteOffset":15824,"byteLength":1368,"target":34962,"byteStride":12},{"buffer":0,"byteOffset":17192,"byteLength":1368,"target":34962,"byteStride":12},{"buffer":0,"byteOffset":18560,"byteLength":912,"target":34962,"byteStride":8},{"buffer":0,"byteOffset":19472,"byteLength":300,"target":34963},{"buffer":0,"byteOffset":19772,"byteLength":312,"target":34962,"byteStride":12},{"buffer":0,"byteOffset":20084,"byteLength":312,"target":34962,"byteStride":12},{"buffer":0,"byteOffset":20396,"byteLength":208,"target":34962,"byteStride":8},{"buffer":0,"byteOffset":20604,"byteLength":60,"target":34963},{"buffer":0,"byteOffset":20664,"byteLength":720,"target":34962,"byteStride":12},{"buffer":0,"byteOffset":21384,"byteLength":720,"target":34962,"byteStride":12},{"buffer":0,"byteOffset":22104,"byteLength":480,"target":34962,"byteStride":8},{"buffer":0,"byteOffset":22584,"byteLength":144,"target":34963},{"buffer":0,"byteOffset":22728,"byteLength":720,"target":34962,"byteStride":12},{"buffer":0,"byteOffset":23448,"byteLength":720,"target":34962,"byteStride":12},{"buffer":0,"byteOffset":24168,"byteLength":480,"target":34962,"byteStride":8},{"buffer":0,"byteOffset":24648,"byteLength":144,"target":34963}],"buffers":[{"byteLength":24792,"uri":"data:application/octet-stream;base64,"}],"accessors":[{"bufferView":0,"componentType":5126,"count":60,"max":[0.28985026478767395,0.2750000059604645,0.25],"min":[-0.28985026478767395,0.22499999403953552,-0.25],"type":"VEC3"},{"bufferView":1,"componentType":5126,"count":60,"max":[0.8651435971260071,1,1],"min":[-0.8651435971260071,-1,-1],"type":"VEC3"},{"bufferView":2,"componentType":5126,"count":60,"max":[0.4318374991416931,0.359375],"min":[0,0],"type":"VEC2"},{"bufferView":3,"componentType":5123,"count":72,"max":[59],"min":[0],"type":"SCALAR"},{"bufferView":4,"componentType":5126,"count":100,"max":[0.0625,0.265625,0.0625],"min":[-0.0625,0.234375,-0.0625],"type":"VEC3"},{"bufferView":5,"componentType":5126,"count":100,"max":[0.955422580242157,1,1],"min":[-0.955422580242157,-1,-1],"type":"VEC3"},{"bufferView":6,"componentType":5126,"count":100,"max":[0.5612937211990356,0.421875],"min":[0,0],"type":"VEC2"},{"bufferView":7,"componentType":5123,"count":120,"max":[99],"min":[0],"type":"SCALAR"},{"bufferView":8,"componentType":5126,"count":100,"max":[0.0625,0.265625,0.0625],"min":[-0.0625,0.234375,-0.0625],"type":"VEC3"},{"bufferView":9,"componentType":5126,"count":100,"max":[0.955422580242157,1,1],"min":[-0.955422580242157,-1,-1],"type":"VEC3"},{"bufferView":10,"componentType":5126,"count":100,"max":[0.5625,0.390625],"min":[0.421875,0.1875],"type":"VEC2"},{"bufferView":11,"componentType":5123,"count":120,"max":[99],"min":[0],"type":"SCALAR"},{"bufferView":12,"componentType":5126,"count":100,"max":[0.0625,-0.234375,0.0625],"min":[-0.0625,-0.265625,-0.0625],"type":"VEC3"},{"bufferView":13,"componentType":5126,"count":100,"max":[0.955422580242157,1,1],"min":[-0.955422580242157,-1,-1],"type":"VEC3"},{"bufferView":14,"componentType":5126,"count":100,"max":[0.5612937211990356,0.53125],"min":[0.203125,0.234375],"type":"VEC2"},{"bufferView":15,"componentType":5123,"count":120,"max":[99],"min":[0],"type":"SCALAR"},{"bufferView":16,"componentType":5126,"count":100,"max":[0.0625,-0.234375,0.0625],"min":[-0.0625,-0.265625,-0.0625],"type":"VEC3"},{"bufferView":17,"componentType":5126,"count":100,"max":[0.955422580242157,1,1],"min":[-0.955422580242157,-1,-1],"type":"VEC3"},{"bufferView":18,"componentType":5126,"count":100,"max":[0.5625,0.484375],"min":[0.453125,0.03125],"type":"VEC2"},{"bufferView":19,"componentType":5123,"count":120,"max":[99],"min":[0],"type":"SCALAR"},{"bufferView":20,"componentType":5126,"count":114,"max":[0.24775639176368713,0.6875,0.25],"min":[-0.24775639176368713,0,-0.25],"type":"VEC3"},{"bufferView":21,"componentType":5126,"count":114,"max":[0.9407755732536316,0.5147907137870789,0.9996159076690674],"min":[-0.9407755732536316,-1,-0.9397934079170227],"type":"VEC3"},{"bufferView":22,"componentType":5126,"count":114,"max":[0.5679265260696411,0.5735109448432922],"min":[0.001840699347667396,0],"type":"VEC2"},{"bufferView":23,"componentType":5123,"count":150,"max":[113],"min":[0],"type":"SCALAR"},{"bufferView":24,"componentType":5126,"count":26,"max":[0.59375,0.35624998807907104,0.05000000074505806],"min":[-0.59375,0.0625,-0.03125],"type":"VEC3"},{"bufferView":25,"componentType":5126,"count":26,"max":[0.4434356987476349,0.8963062167167664,0.9672008156776428],"min":[-0.4434356987476349,-0.9945054650306702,-0.9908939599990845],"type":"VEC3"},{"bufferView":26,"componentType":5126,"count":26,"max":[0.6375813484191895,0.572045087814331],"min":[0,0],"type":"VEC2"},{"bufferView":27,"componentType":5123,"count":30,"max":[25],"min":[0],"type":"SCALAR"},{"bufferView":28,"componentType":5126,"count":60,"max":[0.03125,0.078125,0.012500000186264515],"min":[-0.03125,-0.015625,-0.012500000186264515],"type":"VEC3"},{"bufferView":29,"componentType":5126,"count":60,"max":[0.6246950626373291,1,1],"min":[-0.6246950626373291,-1,-1],"type":"VEC3"},{"bufferView":30,"componentType":5126,"count":60,"max":[0.546875,0.5531250238418579],"min":[0,0.03125],"type":"VEC2"},{"bufferView":31,"componentType":5123,"count":72,"max":[59],"min":[0],"type":"SCALAR"},{"bufferView":32,"componentType":5126,"count":60,"max":[0.03125,0.078125,0.012500000186264515],"min":[-0.03125,-0.015625,-0.012500000186264515],"type":"VEC3"},{"bufferView":33,"componentType":5126,"count":60,"max":[0.6246950626373291,1,1],"min":[-0.6246950626373291,-1,-1],"type":"VEC3"},{"bufferView":34,"componentType":5126,"count":60,"max":[0.515625,0.5625],"min":[0.203125,0.03125],"type":"VEC2"},{"bufferView":35,"componentType":5123,"count":72,"max":[59],"min":[0],"type":"SCALAR"}],"materials":[{"pbrMetallicRoughness":{"metallicFactor":0,"roughnessFactor":1,"baseColorTexture":{"index":0}},"alphaMode":"MASK","alphaCutoff":0.05,"doubleSided":true}],"textures":[{"sampler":0,"source":0,"name":"texture.png"}],"samplers":[{"magFilter":9728,"minFilter":9728,"wrapS":33071,"wrapT":33071}],"images":[{"mimeType":"image/png","uri":"data:image/png;base64,"}],"meshes":[{"primitives":[{"mode":4,"attributes":{"POSITION":0,"NORMAL":1,"TEXCOORD_0":2},"indices":3,"material":0}]},{"primitives":[{"mode":4,"attributes":{"POSITION":4,"NORMAL":5,"TEXCOORD_0":6},"indices":7,"material":0}]},{"primitives":[{"mode":4,"attributes":{"POSITION":8,"NORMAL":9,"TEXCOORD_0":10},"indices":11,"material":0}]},{"primitives":[{"mode":4,"attributes":{"POSITION":12,"NORMAL":13,"TEXCOORD_0":14},"indices":15,"material":0}]},{"primitives":[{"mode":4,"attributes":{"POSITION":16,"NORMAL":17,"TEXCOORD_0":18},"indices":19,"material":0}]},{"primitives":[{"mode":4,"attributes":{"POSITION":20,"NORMAL":21,"TEXCOORD_0":22},"indices":23,"material":0}]},{"primitives":[{"mode":4,"attributes":{"POSITION":24,"NORMAL":25,"TEXCOORD_0":26},"indices":27,"material":0}]},{"primitives":[{"mode":4,"attributes":{"POSITION":28,"NORMAL":29,"TEXCOORD_0":30},"indices":31,"material":0}]},{"primitives":[{"mode":4,"attributes":{"POSITION":32,"NORMAL":33,"TEXCOORD_0":34},"indices":35,"material":0}]}]}