{"asset":{"version":"2.0","generator":"Blockbench 4.10.3 glTF exporter"},"scenes":[{"nodes":[1],"name":"blockbench_export"}],"scene":0,"nodes":[{"translation":[0,0.1875,0],"name":"body","mesh":0},{"children":[0]}],"bufferViews":[{"buffer":0,"byteOffset":0,"byteLength":4248,"target":34962,"byteStride":12},{"buffer":0,"byteOffset":4248,"byteLength":4248,"target":34962,"byteStride":12},{"buffer":0,"byteOffset":8496,"byteLength":2832,"target":34962,"byteStride":8},{"buffer":0,"byteOffset":11328,"byteLength":1056,"target":34963}],"buffers":[{"byteLength":12384,"uri":"data:application/octet-stream;base64,"}],"accessors":[{"bufferView":0,"componentType":5126,"count":354,"max":[0.3757782280445099,0.056093890219926834,0.25010475516319275],"min":[0.007654762826859951,-0.052711013704538345,-0.4327360987663269],"type":"VEC3"},{"bufferView":1,"componentType":5126,"count":354,"max":[0.984717845916748,1,0.9542418718338013],"min":[-0.9970248937606812,-1,-0.9865955710411072],"type":"VEC3"},{"bufferView":2,"componentType":5126,"count":354,"max":[0.7734586596488953,0.625],"min":[0,0],"type":"VEC2"},{"bufferView":3,"componentType":5123,"count":528,"max":[353],"min":[0],"type":"SCALAR"}],"materials":[{"pbrMetallicRoughness":{"metallicFactor":0,"roughnessFactor":1,"baseColorTexture":{"index":0}},"alphaMode":"MASK","alphaCutoff":0.05,"doubleSided":true}],"textures":[{"sampler":0,"source":0,"name":"texture.png"}],"samplers":[{"magFilter":9728,"minFilter":9728,"wrapS":33071,"wrapT":33071}],"images":[{"mimeType":"image/png","uri":"data:image/png;base64,"}],"meshes":[{"primitives":[{"mode":4,"attributes":{"POSITION":0,"NORMAL":1,"TEXCOORD_0":2},"indices":3,"material":0}]}]}