{"asset":{"version":"2.0","generator":"Blockbench 4.10.4 glTF exporter"},"scenes":[{"nodes":[4],"name":"blockbench_export"}],"scene":0,"nodes":[{"translation":[0,0.2625000000000003,-0.025],"name":"blade","mesh":0},{"name":"blade","children":[0]},{"translation":[0,0.024999999999999998,-0.018750000000000003],"name":"hilt","mesh":1},{"name":"hilt","children":[2]},{"children":[1,3]}],"bufferViews":[{"buffer":0,"byteOffset":0,"byteLength":1068,"target":34962,"byteStride":12},{"buffer":0,"byteOffset":1068,"byteLength":1068,"target":34962,"byteStride":12},{"buffer":0,"byteOffset":2136,"byteLength":712,"target":34962,"byteStride":8},{"buffer":0,"byteOffset":2848,"byteLength":248,"target":34963},{"buffer":0,"byteOffset":3096,"byteLength":288,"target":34962,"byteStride":12},{"buffer":0,"byteOffset":3384,"byteLength":288,"target":34962,"byteStride":12},{"buffer":0,"byteOffset":3672,"byteLength":192,"target":34962,"byteStride":8},{"buffer":0,"byteOffset":3864,"byteLength":72,"target":34963}],"buffers":[{"byteLength":3936,"uri":"data:application/octet-stream;base64,"}],"accessors":[{"bufferView":0,"componentType":5126,"count":89,"max":[0.012500000186264515,0.3687500059604645,0.0446474589407444],"min":[-0.012500000186264515,0.13124999403953552,-0.05000000074505806],"type":"VEC3"},{"bufferView":1,"componentType":5126,"count":89,"max":[0.9990043640136719,1,0.9993314743041992],"min":[-0.9999005794525146,-0.014596174471080303,-0.9984127283096313],"type":"VEC3"},{"bufferView":2,"componentType":5126,"count":89,"max":[0.8884000182151794,0.9878749847412109],"min":[2.7755575615628914e-17,0],"type":"VEC2"},{"bufferView":3,"componentType":5123,"count":123,"max":[88],"min":[0],"type":"SCALAR"},{"bufferView":4,"componentType":5126,"count":24,"max":[0.012500000186264515,0.3687500059604645,0.03750000149011612],"min":[-0.012500000186264515,0.20624999701976776,-0.0062500000931322575],"type":"VEC3"},{"bufferView":5,"componentType":5126,"count":24,"max":[0.9899494647979736,1,1],"min":[-0.9899494647979736,-1,-1],"type":"VEC3"},{"bufferView":6,"componentType":5126,"count":24,"max":[1.087499976158142,1],"min":[0,0],"type":"VEC2"},{"bufferView":7,"componentType":5123,"count":36,"max":[23],"min":[0],"type":"SCALAR"}],"materials":[{"pbrMetallicRoughness":{"metallicFactor":0,"roughnessFactor":1,"baseColorTexture":{"index":0}},"alphaMode":"MASK","alphaCutoff":0.05,"doubleSided":true}],"textures":[{"sampler":0,"source":0,"name":"texture.png"}],"samplers":[{"magFilter":9728,"minFilter":9728,"wrapS":33071,"wrapT":33071}],"images":[{"mimeType":"image/png","uri":"data:image/png;base64,"}],"meshes":[{"primitives":[{"mode":4,"attributes":{"POSITION":0,"NORMAL":1,"TEXCOORD_0":2},"indices":3,"material":0}]},{"primitives":[{"mode":4,"attributes":{"POSITION":4,"NORMAL":5,"TEXCOORD_0":6},"indices":7,"material":0}]}]}