{
  "accessors": [
    {
      "bufferView": 2,
      "componentType": 5126,
      "count": 3288,
      "max": [
        82.73397064208984,
        167.11370849609375,
        340.5135803222656
      ],
      "min": [
        -83.0931396484375,
        0.578399658203125,
        -17.903717041015625
      ],
      "type": "VEC3"
    },
    {
      "bufferView": 2,
      "byteOffset": 39456,
      "componentType": 5126,
      "count": 3288,
      "max": [
        0.9953349828720093,
        0.958631694316864,
        0.990695595741272
      ],
      "min": [
        -0.9953349828720093,
        -0.980593740940094,
        -0.9924216866493225
      ],
      "type": "VEC3"
    },
    {
      "bufferView": 1,
      "componentType": 5126,
      "count": 3288,
      "max": [
        0.9166666865348816,
        0.9999999403953552
      ],
      "min": [
        -0.08333331346511841,
        0.0
      ],
      "type": "VEC2"
    },
    {
      "bufferView": 0,
      "componentType": 5125,
      "count": 4872,
      "type": "SCALAR"
    },
    {
      "bufferView": 2,
      "byteOffset": 78912,
      "componentType": 5126,
      "count": 1130,
      "max": [
        63.284244537353516,
        177.55352783203125,
        291.46112060546875
      ],
      "min": [
        -63.64341354370117,
        -1.2008438110351563,
        -84.88851928710938
      ],
      "type": "VEC3"
    },
    {
      "bufferView": 2,
      "byteOffset": 92472,
      "componentType": 5126,
      "count": 1130,
      "max": [
        0.993920087814331,
        0.9682922959327698,
        0.9695566296577454
      ],
      "min": [
        -0.993920087814331,
        -1.0,
        -0.9994999170303345
      ],
      "type": "VEC3"
    },
    {
      "bufferView": 1,
      "byteOffset": 26304,
      "componentType": 5126,
      "count": 1130,
      "max": [
        0.9166666865348816,
        0.9999999403953552
      ],
      "min": [
        -0.08333331346511841,
        0.0
      ],
      "type": "VEC2"
    },
    {
      "bufferView": 0,
      "byteOffset": 19488,
      "componentType": 5125,
      "count": 1686,
      "type": "SCALAR"
    },
    {
      "bufferView": 2,
      "byteOffset": 106032,
      "componentType": 5126,
      "count": 148,
      "max": [
        53.56003189086914,
        141.63690185546875,
        340.5135803222656
      ],
      "min": [
        -53.9191780090332,
        45.133384704589844,
        -17.33912467956543
      ],
      "type": "VEC3"
    },
    {
      "bufferView": 2,
      "byteOffset": 107808,
      "componentType": 5126,
      "count": 148,
      "max": [
        0.4349907338619232,
        0.04050172120332718,
        0.9891945123672485
      ],
      "min": [
        -0.6177322864532471,
        -0.7110875844955444,
        -0.8500725030899048
      ],
      "type": "VEC3"
    },
    {
      "bufferView": 1,
      "byteOffset": 35344,
      "componentType": 5126,
      "count": 148,
      "max": [
        0.9166666865348816,
        0.9999999403953552
      ],
      "min": [
        0.11164536327123642,
        -0.29395097494125366
      ],
      "type": "VEC2"
    },
    {
      "bufferView": 0,
      "byteOffset": 26232,
      "componentType": 5125,
      "count": 204,
      "type": "SCALAR"
    },
    {
      "bufferView": 2,
      "byteOffset": 109584,
      "componentType": 5126,
      "count": 8,
      "max": [
        29.788816452026367,
        98.65967559814453,
        293.3321533203125
      ],
      "min": [
        -30.147985458374023,
        87.36392211914063,
        287.7393493652344
      ],
      "type": "VEC3"
    },
    {
      "bufferView": 2,
      "byteOffset": 109680,
      "componentType": 5126,
      "count": 8,
      "max": [
        0.6479790806770325,
        0.129602313041687,
        0.7505508065223694
      ],
      "min": [
        -0.6479790806770325,
        0.12960216403007507,
        0.7505506873130798
      ],
      "type": "VEC3"
    },
    {
      "bufferView": 1,
      "byteOffset": 36528,
      "componentType": 5126,
      "count": 8,
      "max": [
        0.8862939476966858,
        0.9999999403953552
      ],
      "min": [
        0.8637064695358276,
        0.9999999403953552
      ],
      "type": "VEC2"
    },
    {
      "bufferView": 0,
      "byteOffset": 27048,
      "componentType": 5125,
      "count": 12,
      "type": "SCALAR"
    },
    {
      "bufferView": 2,
      "byteOffset": 109776,
      "componentType": 5126,
      "count": 102,
      "max": [
        41.01918411254883,
        73.40830993652344,
        323.0480041503906
      ],
      "min": [
        -41.308448791503906,
        48.51463317871094,
        306.2618103027344
      ],
      "type": "VEC3"
    },
    {
      "bufferView": 2,
      "byteOffset": 111000,
      "componentType": 5126,
      "count": 102,
      "max": [
        0.8497135043144226,
        0.8958755135536194,
        0.9856429696083069
      ],
      "min": [
        -0.8855245113372803,
        -0.8969278335571289,
        -0.9632023572921753
      ],
      "type": "VEC3"
    },
    {
      "bufferView": 1,
      "byteOffset": 36592,
      "componentType": 5126,
      "count": 102,
      "max": [
        0.75,
        0.9999999403953552
      ],
      "min": [
        0.16666652262210846,
        0.0
      ],
      "type": "VEC2"
    },
    {
      "bufferView": 0,
      "byteOffset": 27096,
      "componentType": 5125,
      "count": 150,
      "type": "SCALAR"
    }
  ],
  "asset": {
    "extras": {
      "author": "Hanabi_Map (https://sketchfab.com/Hanabi_Map)",
      "license": "CC-BY-4.0 (http://creativecommons.org/licenses/by/4.0/)",
      "source": "https://sketchfab.com/3d-models/low-poly-wild-boar-c629c82f34754fd09230b2c9563296ac",
      "title": "Low Poly Wild Boar"
    },
    "generator": "Sketchfab-12.78.0",
    "version": "2.0"
  },
  "bufferViews": [
    {
      "buffer": 0,
      "byteLength": 27696,
      "name": "floatBufferViews",
      "target": 34963
    },
    {
      "buffer": 0,
      "byteLength": 37408,
      "byteOffset": 27696,
      "byteStride": 8,
      "name": "floatBufferViews",
      "target": 34962
    },
    {
      "buffer": 0,
      "byteLength": 112224,
      "byteOffset": 65104,
      "byteStride": 12,
      "name": "floatBufferViews",
      "target": 34962
    }
  ],
  "buffers": [
    {
      "byteLength": 177328,
      "uri": "scene.bin"
    }
  ],
  "materials": [
    {
      "doubleSided": true,
      "name": "Material_54",
      "pbrMetallicRoughness": {
        "baseColorFactor": [
          0.09760766351008722,
          0.020244794794246145,
          0.000827395683285784,
          1.0
        ],
        "metallicFactor": 0.0,
        "roughnessFactor": 0.6
      }
    },
    {
      "doubleSided": true,
      "name": "Material_60",
      "pbrMetallicRoughness": {
        "baseColorFactor": [
          0.030152376792982615,
          0.004959445537970718,
          0.0,
          1.0
        ],
        "metallicFactor": 0.0,
        "roughnessFactor": 0.6
      }
    },
    {
      "doubleSided": true,
      "name": "Material_57",
      "pbrMetallicRoughness": {
        "baseColorFactor": [
          0.8741016688625401,
          0.24249087479131679,
          0.6100180324619224,
          1.0
        ],
        "metallicFactor": 0.0,
        "roughnessFactor": 0.6
      }
    },
    {
      "doubleSided": true,
      "name": "Material_56",
      "pbrMetallicRoughness": {
        "baseColorFactor": [
          0.0,
          0.0,
          0.0,
          1.0
        ],
        "metallicFactor": 0.0,
        "roughnessFactor": 0.6
      }
    },
    {
      "doubleSided": true,
      "name": "Material_55",
      "pbrMetallicRoughness": {
        "baseColorFactor": [
          0.6281055094861525,
          0.5615568513563206,
          0.5615568513563206,
          1.0
        ],
        "metallicFactor": 0.0,
        "roughnessFactor": 0.6
      }
    }
  ],
  "meshes": [
    {
      "name": "jabali_Material #54_0",
      "primitives": [
        {
          "attributes": {
            "NORMAL": 1,
            "POSITION": 0,
            "TEXCOORD_0": 2
          },
          "indices": 3,
          "material": 0,
          "mode": 4
        }
      ]
    },
    {
      "name": "jabali_Material #60_0",
      "primitives": [
        {
          "attributes": {
            "NORMAL": 5,
            "POSITION": 4,
            "TEXCOORD_0": 6
          },
          "indices": 7,
          "material": 1,
          "mode": 4
        }
      ]
    },
    {
      "name": "jabali_Material #57_0",
      "primitives": [
        {
          "attributes": {
            "NORMAL": 9,
            "POSITION": 8,
            "TEXCOORD_0": 10
          },
          "indices": 11,
          "material": 2,
          "mode": 4
        }
      ]
    },
    {
      "name": "jabali_Material #56_0",
      "primitives": [
        {
          "attributes": {
            "NORMAL": 13,
            "POSITION": 12,
            "TEXCOORD_0": 14
          },
          "indices": 15,
          "material": 3,
          "mode": 4
        }
      ]
    },
    {
      "name": "jabali_Material #55_0",
      "primitives": [
        {
          "attributes": {
            "NORMAL": 17,
            "POSITION": 16,
            "TEXCOORD_0": 18
          },
          "indices": 19,
          "material": 4,
          "mode": 4
        }
      ]
    }
  ],
  "nodes": [
    {
      "children": [
        1
      ],
      "matrix": [
        1.0,
        0.0,
        0.0,
        0.0,
        0.0,
        2.220446049250313e-16,
        -1.0,
        0.0,
        0.0,
        1.0,
        2.220446049250313e-16,
        0.0,
        0.0,
        0.0,
        0.0,
        1.0
      ],
      "name": "Sketchfab_model"
    },
    {
      "children": [
        2
      ],
      "matrix": [
        0.009999999776482582,
        0.0,
        0.0,
        0.0,
        0.0,
        0.0,
        0.009999999776482582,
        0.0,
        0.0,
        -0.009999999776482582,
        0.0,
        0.0,
        0.0,
        0.0,
        0.0,
        1.0
      ],
      "name": "1639081a32b94166b5576288a237faf3.fbx"
    },
    {
      "children": [
        3
      ],
      "name": "RootNode"
    },
    {
      "children": [
        4
      ],
      "matrix": [
        0.4847491197486189,
        5.355707269172176e-17,
        -0.8746532403775449,
        0.0,
        1.424991084521362e-07,
        0.9999999999999867,
        7.89756605839318e-08,
        0.0,
        0.8746532403775333,
        -1.6292068890819874e-07,
        0.48474911974861246,
        0.0,
        96.3404541015625,
        0.8875739574432373,
        366.0599060058594,
        1.0
      ],
      "name": "jabali"
    },
    {
      "children": [
        5,
        6,
        7,
        8,
        9
      ],
      "matrix": [
        1.0,
        0.0,
        -0.0,
        0.0,
        0.0,
        1.0,
        0.0,
        0.0,
        0.0,
        0.0,
        1.0,
        0.0,
        0.17958450317382813,
        -2.0667579519795254e-05,
        -126.856689453125,
        1.0
      ],
      "name": "Object_4"
    },
    {
      "mesh": 0,
      "name": "jabali_Material #54_0"
    },
    {
      "mesh": 1,
      "name": "jabali_Material #60_0"
    },
    {
      "mesh": 2,
      "name": "jabali_Material #57_0"
    },
    {
      "mesh": 3,
      "name": "jabali_Material #56_0"
    },
    {
      "mesh": 4,
      "name": "jabali_Material #55_0"
    }
  ],
  "scene": 0,
  "scenes": [
    {
      "name": "Sketchfab_Scene",
      "nodes": [
        0
      ]
    }
  ]
}
