{"asset":{"version":"2.0","generator":"Blockbench 4.10.3 glTF exporter"},"scenes":[{"nodes":[10],"name":"blockbench_export"}],"scene":0,"nodes":[{"translation":[0,0.28125,0],"name":"body","mesh":0},{"name":"body","children":[0]},{"rotation":[-0.1521233861899167,0,0,0.9883615104677607],"translation":[-3.469446951953614e-18,0.46025635094611006,-0.01874999999999999],"name":"stem","mesh":1},{"rotation":[0.3602838291687772,-0.09051949822575268,0.06048319502962177,0.926468329733645],"translation":[0.006249999999999999,0.42500000000000004,-0.03125],"name":"leaf","mesh":2},{"name":"stem","children":[2,3]},{"translation":[-0.049999999999999996,0.12499999999999996,-0.05000000000000007],"name":"thruster1","mesh":3},{"translation":[-0.04375,0.12499999999999996,0.04374999999999993],"name":"thruster2","mesh":4},{"translation":[0.05,0.12499999999999996,0.04374999999999993],"name":"thruster3","mesh":5},{"translation":[0.04375,0.12499999999999996,-0.05000000000000007],"name":"thruster2","mesh":6},{"name":"Thrusters","children":[5,6,7,8]},{"children":[1,4,9]}],"bufferViews":[{"buffer":0,"byteOffset":0,"byteLength":3168,"target":34962,"byteStride":12},{"buffer":0,"byteOffset":3168,"byteLength":3168,"target":34962,"byteStride":12},{"buffer":0,"byteOffset":6336,"byteLength":2112,"target":34962,"byteStride":8},{"buffer":0,"byteOffset":8448,"byteLength":720,"target":34963},{"buffer":0,"byteOffset":9168,"byteLength":816,"target":34962,"byteStride":12},{"buffer":0,"byteOffset":9984,"byteLength":816,"target":34962,"byteStride":12},{"buffer":0,"byteOffset":10800,"byteLength":544,"target":34962,"byteStride":8},{"buffer":0,"byteOffset":11344,"byteLength":180,"target":34963},{"buffer":0,"byteOffset":11524,"byteLength":1008,"target":34962,"byteStride":12},{"buffer":0,"byteOffset":12532,"byteLength":1008,"target":34962,"byteStride":12},{"buffer":0,"byteOffset":13540,"byteLength":672,"target":34962,"byteStride":8},{"buffer":0,"byteOffset":14212,"byteLength":216,"target":34963},{"buffer":0,"byteOffset":14428,"byteLength":1440,"target":34962,"byteStride":12},{"buffer":0,"byteOffset":15868,"byteLength":1440,"target":34962,"byteStride":12},{"buffer":0,"byteOffset":17308,"byteLength":960,"target":34962,"byteStride":8},{"buffer":0,"byteOffset":18268,"byteLength":288,"target":34963},{"buffer":0,"byteOffset":18556,"byteLength":1440,"target":34962,"byteStride":12},{"buffer":0,"byteOffset":19996,"byteLength":1440,"target":34962,"byteStride":12},{"buffer":0,"byteOffset":21436,"byteLength":960,"target":34962,"byteStride":8},{"buffer":0,"byteOffset":22396,"byteLength":288,"target":34963},{"buffer":0,"byteOffset":22684,"byteLength":1440,"target":34962,"byteStride":12},{"buffer":0,"byteOffset":24124,"byteLength":1440,"target":34962,"byteStride":12},{"buffer":0,"byteOffset":25564,"byteLength":960,"target":34962,"byteStride":8},{"buffer":0,"byteOffset":26524,"byteLength":288,"target":34963},{"buffer":0,"byteOffset":26812,"byteLength":1440,"target":34962,"byteStride":12},{"buffer":0,"byteOffset":28252,"byteLength":1440,"target":34962,"byteStride":12},{"buffer":0,"byteOffset":29692,"byteLength":960,"target":34962,"byteStride":8},{"buffer":0,"byteOffset":30652,"byteLength":288,"target":34963}],"buffers":[{"byteLength":30940,"uri":"data:application/octet-stream;base64,"}],"accessors":[{"bufferView":0,"componentType":5126,"count":264,"max":[0.15625,0.13531647622585297,0.15625],"min":[-0.15625,-0.125,-0.15625],"type":"VEC3"},{"bufferView":1,"componentType":5126,"count":264,"max":[0.9659258127212524,0.978248119354248,0.9659258127212524],"min":[-0.9659258127212524,-0.999609649181366,-0.9659258127212524],"type":"VEC3"},{"bufferView":2,"componentType":5126,"count":264,"max":[0.7474990487098694,0.75],"min":[0.00019643949053715914,0],"type":"VEC2"},{"bufferView":3,"componentType":5123,"count":360,"max":[263],"min":[0],"type":"SCALAR"},{"bufferView":4,"componentType":5126,"count":68,"max":[0.0078125,0.012500000186264515,0.018171461299061775],"min":[-0.0078125,-0.08749999850988388,-0.0062500000931322575],"type":"VEC3"},{"bufferView":5,"componentType":5126,"count":68,"max":[1,1,0.992415189743042],"min":[-1,-1,-1],"type":"VEC3"},{"bufferView":6,"componentType":5126,"count":68,"max":[0.7890755534172058,0.8125],"min":[0,0],"type":"VEC2"},{"bufferView":7,"componentType":5123,"count":90,"max":[67],"min":[0],"type":"SCALAR"},{"bufferView":8,"componentType":5126,"count":84,"max":[0.023168722167611122,0.012238257564604282,0.046875],"min":[-0.021983101963996887,-0.007711951155215502,-0.04649447649717331],"type":"VEC3"},{"bufferView":9,"componentType":5126,"count":84,"max":[0.6169552206993103,1,0.4280855655670166],"min":[-0.6669371128082275,0.666328489780426,-0.5270193815231323],"type":"VEC3"},{"bufferView":10,"componentType":5126,"count":84,"max":[0.30511951446533203,0.7679625153541565],"min":[0,0],"type":"VEC2"},{"bufferView":11,"componentType":5123,"count":108,"max":[83],"min":[0],"type":"SCALAR"},{"bufferView":12,"componentType":5126,"count":120,"max":[0.015625,0.03750000149011612,0.015625],"min":[-0.015625,0.02500000037252903,-0.015625],"type":"VEC3"},{"bufferView":13,"componentType":5126,"count":120,"max":[1,1,1],"min":[-1,-1,-1],"type":"VEC3"},{"bufferView":14,"componentType":5126,"count":120,"max":[0.7938125133514404,0.762499988079071],"min":[0.015625,0],"type":"VEC2"},{"bufferView":15,"componentType":5123,"count":144,"max":[119],"min":[0],"type":"SCALAR"},{"bufferView":16,"componentType":5126,"count":120,"max":[0.015625,0.03750000149011612,0.015625],"min":[-0.015625,0.02500000037252903,-0.015625],"type":"VEC3"},{"bufferView":17,"componentType":5126,"count":120,"max":[1,1,1],"min":[-1,-1,-1],"type":"VEC3"},{"bufferView":18,"componentType":5126,"count":120,"max":[0.7938125133514404,0.762499988079071],"min":[0.20618750154972076,0.1875],"type":"VEC2"},{"bufferView":19,"componentType":5123,"count":144,"max":[119],"min":[0],"type":"SCALAR"},{"bufferView":20,"componentType":5126,"count":120,"max":[0.015625,0.03750000149011612,0.015625],"min":[-0.015625,0.02500000037252903,-0.015625],"type":"VEC3"},{"bufferView":21,"componentType":5126,"count":120,"max":[1,1,1],"min":[-1,-1,-1],"type":"VEC3"},{"bufferView":22,"componentType":5126,"count":120,"max":[0.7938125133514404,0.762499988079071],"min":[0.33118748664855957,0.3125],"type":"VEC2"},{"bufferView":23,"componentType":5123,"count":144,"max":[119],"min":[0],"type":"SCALAR"},{"bufferView":24,"componentType":5126,"count":120,"max":[0.015625,0.03750000149011612,0.015625],"min":[-0.015625,0.02500000037252903,-0.015625],"type":"VEC3"},{"bufferView":25,"componentType":5126,"count":120,"max":[1,1,1],"min":[-1,-1,-1],"type":"VEC3"},{"bufferView":26,"componentType":5126,"count":120,"max":[0.7938125133514404,0.762499988079071],"min":[0.45618748664855957,0.4375],"type":"VEC2"},{"bufferView":27,"componentType":5123,"count":144,"max":[119],"min":[0],"type":"SCALAR"}],"materials":[{"pbrMetallicRoughness":{"metallicFactor":0,"roughnessFactor":1,"baseColorTexture":{"index":0}},"alphaMode":"MASK","alphaCutoff":0.05,"doubleSided":true}],"textures":[{"sampler":0,"source":0,"name":"texture.png"}],"samplers":[{"magFilter":9728,"minFilter":9728,"wrapS":33071,"wrapT":33071}],"images":[{"mimeType":"image/png","uri":"data:image/png;base64,"}],"meshes":[{"primitives":[{"mode":4,"attributes":{"POSITION":0,"NORMAL":1,"TEXCOORD_0":2},"indices":3,"material":0}]},{"primitives":[{"mode":4,"attributes":{"POSITION":4,"NORMAL":5,"TEXCOORD_0":6},"indices":7,"material":0}]},{"primitives":[{"mode":4,"attributes":{"POSITION":8,"NORMAL":9,"TEXCOORD_0":10},"indices":11,"material":0}]},{"primitives":[{"mode":4,"attributes":{"POSITION":12,"NORMAL":13,"TEXCOORD_0":14},"indices":15,"material":0}]},{"primitives":[{"mode":4,"attributes":{"POSITION":16,"NORMAL":17,"TEXCOORD_0":18},"indices":19,"material":0}]},{"primitives":[{"mode":4,"attributes":{"POSITION":20,"NORMAL":21,"TEXCOORD_0":22},"indices":23,"material":0}]},{"primitives":[{"mode":4,"attributes":{"POSITION":24,"NORMAL":25,"TEXCOORD_0":26},"indices":27,"material":0}]}]}